<?xml version="1.0" standalone="no"?>
<!DOCTYPE svg PUBLIC "-//W3C//DTD SVG 20010904//EN"
 "http://www.w3.org/TR/2001/REC-SVG-20010904/DTD/svg10.dtd">
<svg version="1.0" xmlns="http://www.w3.org/2000/svg"
 width="396.000000pt" height="396.000000pt" viewBox="0 0 396.000000 396.000000"
 preserveAspectRatio="xMidYMid meet">
<metadata>
Created by potrace 1.11, written by Peter Selinger 2001-2013
</metadata>
<g transform="translate(0.000000,396.000000) scale(0.100000,-0.100000)"
fill="#000000" stroke="none">
<path d="M1657 3819 c-105 -15 -280 -61 -366 -96 -497 -200 -938 -582 -1136
-982 -52 -103 -85 -208 -85 -265 0 -82 15 -105 122 -195 107 -90 248 -248 355
-396 35 -49 71 -93 80 -96 25 -9 73 53 137 178 196 377 635 767 1053 932 189
75 440 124 503 98 23 -9 18 -11 -45 -23 -164 -30 -215 -45 -215 -63 0 -18 203
-223 252 -255 33 -22 82 -17 192 19 79 25 117 27 124 6 3 -10 0 -12 -12 -8 -9
4 -15 3 -12 -2 6 -9 -109 -61 -179 -80 -22 -6 -113 -27 -201 -46 -89 -19 -238
-57 -331 -85 -558 -163 -840 -315 -1124 -606 -141 -145 -188 -223 -239 -394
-85 -284 57 -559 318 -616 108 -23 129 -34 197 -101 48 -47 77 -65 145 -92 75
-29 92 -33 150 -28 36 3 74 9 86 12 21 6 63 -25 272 -202 202 -172 486 -267
792 -266 313 1 554 97 761 304 103 103 155 174 193 268 34 84 79 145 139 190
122 89 205 209 252 364 25 80 27 97 23 215 -5 133 -23 204 -55 217 -17 6 -33
-10 -33 -34 0 -7 -14 -42 -30 -76 -30 -63 -112 -149 -134 -142 -12 4 -18 29
-41 177 -21 137 -70 283 -145 428 -93 183 -264 398 -392 496 -21 15 -35 33
-31 39 3 6 1 7 -5 3 -7 -4 -12 -3 -12 2 0 5 -9 12 -20 15 -33 8 -24 22 50 77
155 115 265 283 238 362 -12 35 -35 48 -86 48 -44 0 -62 -16 -106 -92 -52 -93
-218 -248 -263 -248 -12 0 -63 38 -120 89 -198 178 -419 472 -559 743 -81 158
-114 191 -206 207 -73 12 -165 13 -251 0z m-46 -261 c71 -142 136 -248 236
-386 47 -64 86 -123 87 -130 1 -8 -45 -30 -114 -56 -150 -56 -307 -136 -449
-231 -62 -41 -117 -75 -121 -75 -4 0 -45 44 -90 98 -45 53 -156 173 -246 266
-90 92 -164 174 -164 181 0 37 277 224 470 317 113 56 282 118 317 118 19 0
32 -18 74 -102z m-1243 -1050 c130 -118 352 -372 352 -404 0 -22 -43 -94 -56
-94 -7 0 -45 39 -85 88 -40 48 -135 149 -211 224 -101 101 -138 144 -138 162
0 34 28 96 44 96 7 0 50 -33 94 -72z m2478 46 c62 -36 72 -58 34 -74 -39 -16
-62 -44 -58 -71 5 -37 32 -47 72 -25 73 39 160 2 240 -103 170 -220 275 -474
302 -731 13 -126 14 -125 -28 -128 -20 -2 -76 7 -125 18 -48 12 -128 24 -176
27 l-89 6 -20 46 c-25 60 -83 129 -123 148 -38 18 -123 10 -131 -12 -3 -7 19
-36 49 -67 88 -84 89 -153 5 -199 -23 -14 -44 -31 -46 -40 -5 -27 37 -69 69
-69 35 0 107 28 133 52 55 51 201 57 331 13 144 -48 284 -31 412 51 29 19 56
34 58 34 21 0 -28 -146 -76 -226 -75 -125 -206 -222 -349 -259 -85 -22 -223
-16 -300 14 -30 11 -60 21 -65 21 -6 0 -22 -24 -37 -52 -56 -115 -183 -236
-313 -298 -179 -85 -447 -75 -591 23 -26 17 -49 37 -51 43 -3 7 22 13 71 16
139 9 227 73 321 234 77 131 191 227 317 267 29 10 39 41 21 67 -14 20 -22 22
-74 17 -130 -11 -285 -143 -368 -311 -66 -132 -132 -173 -265 -164 -103 7
-197 59 -250 138 -60 91 -62 15 -4 -119 37 -83 53 -107 123 -177 65 -66 96
-89 165 -122 117 -55 203 -75 330 -75 78 0 126 6 184 22 120 33 262 111 346
188 66 61 73 65 105 59 37 -7 53 4 107 72 16 20 27 22 123 22 125 0 125 0 64
-102 -147 -249 -440 -419 -745 -435 -327 -18 -650 108 -930 361 -55 50 -77 77
-86 107 -15 52 -30 57 -67 26 -61 -51 -189 -59 -270 -17 -45 23 -106 81 -127
122 -21 40 -21 116 0 155 17 34 65 68 111 79 63 15 72 44 23 74 -26 16 -43 19
-80 14 l-46 -6 -11 38 c-28 101 7 234 98 371 76 115 122 166 239 264 137 114
286 212 437 286 l130 64 -60 -6 c-72 -7 -200 -56 -355 -137 -343 -178 -568
-391 -694 -657 -29 -62 -31 -73 -31 -177 l0 -110 38 -63 c59 -95 38 -113 -61
-52 -49 29 -97 95 -114 155 -78 274 188 641 651 900 227 128 547 242 911 326
235 54 402 105 480 145 57 30 62 30 116 -1z"/>
<path d="M1930 2168 c-88 -24 -152 -132 -151 -254 1 -115 39 -161 46 -55 5 64
42 144 85 186 28 27 38 30 96 30 52 0 67 4 75 17 14 25 -6 57 -46 74 -39 16
-55 16 -105 2z"/>
<path d="M3034 2067 c-35 -31 -37 -77 -4 -112 33 -35 85 -34 122 2 36 34 36
67 -1 104 -37 36 -79 38 -117 6z"/>
<path d="M2109 1705 c-60 -32 -54 -127 10 -159 47 -25 88 -20 122 13 41 41 39
83 -5 127 -38 38 -81 44 -127 19z"/>
<path d="M1259 1517 c-92 -52 -105 -65 -93 -84 23 -37 37 -36 116 12 43 26 80
51 83 56 9 14 -14 49 -33 49 -9 0 -42 -15 -73 -33z"/>
<path d="M1310 1415 c-95 -51 -124 -77 -116 -102 4 -12 14 -24 22 -27 19 -7
214 101 214 119 0 14 -32 45 -46 45 -5 0 -38 -16 -74 -35z"/>
<path d="M1218 2445 c-58 -51 -138 -131 -178 -177 -85 -98 -184 -242 -170
-246 5 -2 27 10 48 26 114 90 466 292 510 292 21 0 13 32 -26 104 -61 111 -60
111 -184 1z"/>
</g>
</svg>
