<?xml version="1.0" standalone="no"?>
<!DOCTYPE svg PUBLIC "-//W3C//DTD SVG 20010904//EN"
 "http://www.w3.org/TR/2001/REC-SVG-20010904/DTD/svg10.dtd">
<svg version="1.0" xmlns="http://www.w3.org/2000/svg"
 width="512.000000pt" height="512.000000pt" viewBox="0 0 512.000000 512.000000"
 preserveAspectRatio="xMidYMid meet">
<metadata>
Created by potrace 1.11, written by Peter Selinger 2001-2013
</metadata>
<g transform="translate(0.000000,512.000000) scale(0.100000,-0.100000)"
fill="#000000" stroke="none">
<path d="M799 5094 l-24 -25 0 -277 c-1 -152 3 -289 7 -303 14 -41 42 -49 183
-52 l130 -2 1 -138 c1 -132 2 -140 25 -163 15 -15 37 -24 59 -25 68 -3 66 2
67 -130 1 -166 9 -239 39 -355 28 -113 27 -109 42 -147 7 -16 12 -31 12 -34 0
-14 104 -211 129 -243 15 -19 35 -48 45 -64 28 -44 203 -217 266 -262 120 -87
234 -146 365 -189 84 -28 115 -52 115 -91 0 -35 -29 -59 -96 -79 -81 -25 -235
-98 -315 -151 -184 -120 -340 -288 -444 -479 -26 -48 -48 -92 -49 -98 -1 -7
-10 -30 -20 -52 -25 -58 -24 -94 5 -120 24 -20 25 -23 13 -70 -6 -28 -15 -68
-20 -89 -6 -28 -15 -40 -29 -42 -32 -5 -55 -42 -56 -93 -1 -25 -2 -102 -4
-171 -1 -69 -3 -128 -4 -131 0 -4 -16 -6 -33 -6 -98 2 -111 -20 -112 -195 l-1
-133 -130 -2 c-135 -2 -166 -10 -182 -47 -5 -11 -9 -149 -8 -304 l0 -284 28
-24 28 -24 1722 0 c947 0 1732 3 1744 6 44 12 48 43 48 335 -1 151 -4 283 -8
294 -13 39 -43 47 -178 46 -113 0 -128 2 -133 17 -2 9 -4 70 -3 134 1 158 -10
176 -107 183 -17 2 -34 3 -37 4 -3 0 -6 78 -6 172 -1 95 -4 193 -8 218 -4 25
-9 60 -10 76 -5 44 -41 174 -70 252 -132 350 -446 650 -804 768 -91 30 -121
52 -121 88 0 44 39 76 113 91 7 2 26 8 42 15 17 6 44 17 60 23 125 49 284 158
406 278 125 124 203 234 276 391 27 57 79 215 87 260 3 19 8 45 11 59 9 45 17
153 18 274 l2 120 50 3 c36 2 56 10 73 27 23 22 24 30 25 164 l1 140 125 0
c144 1 175 9 188 49 11 32 11 558 0 589 -4 12 -19 26 -33 32 -18 9 -470 12
-1753 12 l-1728 0 -24 -26z"/>
</g>
</svg>
