<?xml version="1.0" standalone="no"?>
<!DOCTYPE svg PUBLIC "-//W3C//DTD SVG 20010904//EN"
 "http://www.w3.org/TR/2001/REC-SVG-20010904/DTD/svg10.dtd">
<svg version="1.0" xmlns="http://www.w3.org/2000/svg"
 width="512.000000pt" height="512.000000pt" viewBox="0 0 512.000000 512.000000"
 preserveAspectRatio="xMidYMid meet">
<metadata>
Created by potrace 1.11, written by Peter Selinger 2001-2013
</metadata>
<g transform="translate(0.000000,512.000000) scale(0.100000,-0.100000)"
fill="#000000" stroke="none">
<path d="M2480 4785 l0 -75 -86 0 c-81 0 -87 -1 -115 -29 l-29 -29 0 -166 c0
-90 5 -177 10 -191 6 -15 23 -32 40 -38 35 -13 35 -7 20 -281 -19 -332 -56
-626 -121 -951 -22 -110 -42 -208 -45 -217 -4 -15 -18 -18 -78 -18 -59 0 -78
-4 -100 -21 l-26 -20 0 -189 0 -189 26 -20 c14 -11 29 -21 35 -23 10 -3 -57
-204 -135 -403 l-52 -130 -153 -5 c-136 -4 -154 -7 -167 -24 -11 -16 -14 -61
-14 -207 l0 -188 26 -20 c15 -12 41 -21 59 -21 l33 0 -65 -122 c-76 -142 -191
-334 -361 -603 l-120 -190 -171 -3 -171 -2 0 85 c0 82 1 85 28 99 39 21 89 75
106 118 19 44 22 251 5 311 -14 53 -69 110 -131 137 -103 44 -222 4 -283 -94
-28 -46 -30 -57 -33 -165 -6 -172 19 -238 110 -296 l47 -30 -2 -80 -2 -80
-152 -3 -153 -3 0 -74 0 -75 2300 0 2300 0 0 138 c0 116 -4 144 -21 182 -42
92 -107 134 -210 135 -56 0 -73 -4 -115 -30 -72 -45 -106 -106 -112 -200 l-5
-75 -73 0 -74 0 0 85 c0 83 1 85 28 99 43 22 99 90 111 133 6 21 11 90 11 153
0 100 -3 122 -24 165 -28 61 -56 87 -120 116 -120 53 -270 -21 -306 -150 -14
-49 -13 -235 2 -282 13 -46 68 -113 109 -135 29 -14 29 -16 29 -100 0 -73 -2
-85 -16 -82 -25 5 -367 553 -497 796 l-65 122 34 0 c24 0 43 8 59 25 25 24 25
26 25 208 0 142 -3 188 -14 203 -13 17 -31 20 -167 24 l-153 5 -52 130 c-78
199 -145 400 -135 403 6 2 21 12 35 23 l26 20 0 189 0 189 -26 20 c-22 17 -41
21 -100 21 -60 0 -74 3 -78 18 -14 46 -88 433 -105 557 -37 254 -70 650 -71
830 0 47 2 51 30 62 17 6 34 23 40 38 5 14 10 101 10 191 l0 166 -29 29 c-28
28 -34 29 -115 29 l-86 0 0 75 0 75 -80 0 -80 0 0 -75z m157 -630 c10 -398 69
-897 148 -1248 14 -60 25 -111 25 -113 0 -2 -113 -4 -251 -4 l-251 0 6 23 c16
58 77 376 95 497 41 276 71 623 71 824 0 57 3 106 7 110 4 4 39 5 78 4 l70 -3
2 -90z m-268 -1837 c0 -7 -40 -128 -87 -268 l-87 -255 -100 0 c-61 0 -99 4
-98 10 1 6 31 87 66 180 35 94 77 209 93 258 l28 87 93 0 c68 0 93 -3 92 -12z
m298 -243 c46 -137 86 -258 89 -267 5 -17 -9 -18 -195 -18 -111 0 -201 1 -201
3 0 3 167 503 175 525 3 7 15 12 27 10 19 -3 32 -35 105 -253z m297 168 c16
-49 58 -164 93 -258 35 -93 65 -174 66 -180 1 -6 -37 -10 -98 -10 l-100 0 -87
255 c-47 140 -87 261 -87 268 -1 9 24 12 92 12 l93 0 28 -87z m-904 -916 c0
-18 -187 -501 -205 -528 -64 -98 -116 -232 -130 -336 l-7 -53 -235 0 c-185 0
-234 3 -230 13 2 7 58 98 124 202 162 258 240 390 329 561 l76 144 139 0 c76
0 139 -1 139 -3z m856 -69 c15 -40 37 -99 50 -130 12 -32 21 -58 18 -58 -3 0
-26 11 -52 24 -60 30 -161 62 -236 75 -160 29 -359 -1 -508 -75 -26 -13 -49
-24 -52 -24 -3 0 6 26 18 58 13 31 35 90 50 130 l28 72 328 0 328 0 28 -72z
m498 -72 c89 -171 167 -303 329 -561 66 -104 122 -195 124 -202 4 -10 -45 -13
-230 -13 l-235 0 -7 53 c-14 104 -66 238 -130 336 -18 27 -205 510 -205 528 0
2 63 3 139 3 l139 0 76 -144z m-680 -182 c176 -45 340 -175 434 -344 34 -62
72 -178 72 -221 l0 -29 -680 0 -680 0 0 29 c0 43 38 159 72 221 91 163 229
276 408 335 111 37 251 40 374 9z m-2043 -3 c22 -17 24 -29 28 -111 3 -102 -8
-142 -45 -159 -37 -16 -52 -14 -79 14 -23 22 -25 31 -25 126 0 92 2 105 22
126 26 28 67 30 99 4z m3529 -1 c18 -18 20 -33 20 -129 0 -106 -1 -110 -26
-130 -15 -12 -34 -21 -44 -21 -10 0 -29 9 -44 21 -25 20 -26 24 -26 130 0 123
12 149 70 149 17 0 39 -9 50 -20z m461 -459 c19 -15 23 -28 24 -72 l0 -54 -72
-3 -73 -3 0 56 c0 42 5 60 20 75 25 25 71 26 101 1z"/>
</g>
</svg>
